<?xml version="1.0" encoding="UTF-8"?>
<!DOCTYPE svg PUBLIC "-//W3C//DTD SVG 1.1//EN" "http://www.w3.org/Graphics/SVG/1.1/DTD/svg11.dtd">
<!-- Creator: CorelDRAW -->
<svg xmlns="http://www.w3.org/2000/svg" xml:space="preserve" width="38.1054mm" height="44.4644mm" style="shape-rendering:geometricPrecision; text-rendering:geometricPrecision; image-rendering:optimizeQuality; fill-rule:evenodd; clip-rule:evenodd"
viewBox="0 0 30.7109 35.8359"
 xmlns:xlink="http://www.w3.org/1999/xlink">
 <defs>
  <style type="text/css">
   <![CDATA[
    .fil0 {fill:#BAEE3C}
   ]]>
  </style>
 </defs>
 <g id="Слой_x0020_1">
  <metadata id="CorelCorpID_0Corel-Layer"/>
  <g id="_145756864">
   <path id="_145685560" class="fil0" d="M30.6656 23.425c-0.184803,-0.833992 -0.634037,-1.50365 -1.22342,-2.0957 -0.379922,-0.38097 -0.829156,-0.575042 -1.37389,-0.532891 -0.302632,0.0233724 -0.605265,0.0415868 -0.907897,0.0561744 -0.120408,0.00668934 -0.239607,-0.0154741 -0.290704,-0.144022 -0.0485179,-0.123068 0.03796,-0.206805 0.11928,-0.273538 0.359935,-0.296427 0.654911,-0.656523 0.976966,-0.989136 0.677155,-0.702059 1.22987,-1.48407 1.54169,-2.41542 0.162559,-0.482922 0.226632,-0.96665 -0.272409,-1.3253 -0.110173,-0.0785796 -0.141524,-0.203098 -0.152082,-0.330357 -0.0142652,-0.168765 -0.0247425,-0.33898 -0.0390883,-0.508229 -0.0288528,-0.353568 -0.203098,-0.594707 -0.54369,-0.720515 -0.635165,-0.232837 -1.21569,-0.173842 -1.76437,0.249279 -0.437306,0.336401 -0.788456,0.746144 -1.14356,1.15927 -0.288045,0.334951 -0.458341,0.742517 -0.700527,1.10527 -0.145473,0.220184 -0.247586,0.2251 -0.404746,0.0128145 -0.0892181,-0.120166 -0.15595,-0.25895 -0.239849,-0.384758 -0.188511,-0.282967 -0.434727,-0.383791 -0.73478,-0.289576 -1.42386,0.449314 -2.17694,1.95434 -1.77356,3.20919 0.0576251,0.178194 0.128387,0.352198 0.186012,0.530231 0.0994536,0.309402 0.00394913,0.559406 -0.244765,0.758475 -0.229291,0.184803 -0.353729,0.15595 -0.453263,-0.124438 -0.0812393,-0.22639 -0.134915,-0.462129 -0.209626,-0.691662 -0.0746305,-0.22776 -0.242428,-0.341801 -0.480666,-0.361386 -0.35107,-0.0274021 -0.632586,0.120731 -0.786038,0.441416 -0.139993,0.292477 -0.209465,0.603895 -0.19246,0.932801 0.0353004,0.651123 0.0863973,1.30055 0.0863973,1.95152 0.00137011,0.58294 -0.0901852,1.1579 -0.411193,1.66758 -0.0668128,0.104692 -0.0891375,0.307871 -0.247425,0.268541 -0.15732,-0.0396525 -0.121859,-0.237431 -0.134996,-0.374764 -0.146763,-1.62301 0.073341,-3.22241 0.330034,-4.81625 0.161189,-0.992602 0.407325,-1.96989 0.572463,-2.96306 0.241058,-1.4561 0.867116,-2.71644 2.01172,-3.67261 0.728252,-0.607763 1.23535,-1.34496 1.5234,-2.2448 0.242267,-0.761134 0.250246,-1.50236 -0.229291,-2.17444 -0.474057,-0.665469 -1.39219,-0.681185 -1.90848,-0.0484373 -0.335112,0.410145 -0.603814,0.859137 -0.747836,1.37792 -0.061413,0.221393 -0.108641,0.454231 -0.294653,0.619369 -0.0798691,0.0718097 -0.155709,0.166508 -0.276439,0.120328 -0.137414,-0.0519029 -0.120408,-0.189881 -0.112591,-0.29965 0.0170054,-0.216316 0.0917971,-0.418124 0.179484,-0.614372 0.420381,-0.939248 1.07658,-1.74616 1.51816,-2.67348 0.429569,-0.903384 0.831735,-1.81797 0.818679,-2.85143 -0.0131369,-1.05168 -0.213575,-2.05218 -0.966731,-2.83951 -0.58697,-0.614291 -1.31264,-0.902658 -2.16122,-0.619449 -0.606393,0.202695 -1.06618,0.606151 -1.3531,1.18619 -0.378472,0.764116 -0.550219,1.56144 -0.352279,2.4105 0.0772901,0.329873 0.00652815,0.639034 -0.144022,0.932317 -0.0512581,0.101146 -0.118071,0.217283 -0.251616,0.213656 -0.133464,-0.00556102 -0.187302,-0.127259 -0.238399,-0.230661 -0.179484,-0.359854 -0.239607,-0.752914 -0.22905,-1.14452 0.0169248,-0.594546 -0.112671,-1.15427 -0.35518,-1.6858 -0.394107,-0.864457 -0.944326,-1.59295 -1.83772,-2.00559 -0.145473,-0.0680218 -0.320847,-0.0576251 -0.440046,-0.182063 -0.285627,0.0161995 -0.571012,0.0315124 -0.856639,0.0461806 -0.0444882,0.0775319 -0.123148,0.0979223 -0.200519,0.120328 -1.78783,0.527975 -2.45185,2.56597 -2.28816,3.9347 0.0905076,0.751705 0.404746,1.43966 0.792405,2.08796 0.417882,0.69819 0.880334,1.36326 1.44482,1.95297 0.226632,0.236948 0.373314,0.522414 0.423202,0.84995 0.0207934,0.136446 0,0.276359 -0.125808,0.358646 -0.125727,0.0816422 -0.222763,-0.0196651 -0.307871,-0.0901046 -0.23316,-0.19246 -0.499041,-0.298764 -0.788537,-0.376054 -0.711085,-0.1898 -1.26009,0.157401 -1.35431,0.878802 -0.0261932,0.194072 -0.0275633,0.390239 0.00507745,0.58697 0.115331,0.683603 0.58705,1.12631 1.07029,1.55225 0.454392,0.399588 1.02282,0.610181 1.55475,0.882913 0.42699,0.218895 0.88936,0.373233 1.2613,0.695369 0.275069,0.239769 0.497832,0.510969 0.568433,0.881543 0.0197457,0.104934 0.0577057,0.221393 -0.0484373,0.295943 -0.103483,0.073341 -0.184642,-0.0169248 -0.264511,-0.0668128 -0.151921,-0.0941344 -0.294734,-0.203098 -0.450523,-0.289576 -0.626139,-0.345831 -1.12534,-0.0456971 -1.14501,0.673448 -0.0131369,0.497752 0.237351,0.838102 0.609294,1.12631 0.964071,0.746708 1.7053,1.67153 2.15719,2.81114 0.54369,1.36906 0.509438,2.79107 0.35115,4.22025 -0.0211158,0.1844 -0.345992,0.440046 -0.550219,0.440046 -0.212125,0.000161189 -0.305211,-0.158771 -0.377343,-0.328906 -0.0353004,-0.082287 -0.0693113,-0.166025 -0.0889763,-0.251616 -0.073341,-0.312868 -0.136124,-0.627186 -0.210835,-0.940618 -0.15321,-0.646771 -0.489934,-1.17064 -1.10423,-1.46158 -0.413853,-0.196086 -0.724303,0.0146682 -0.758314,0.468012 -0.0341721,0.451652 0.104612,0.862845 0.289495,1.26267 0.10985,0.236948 0.120408,0.481633 0.07592,0.733329 -0.0131369,0.0788214 -0.0499686,0.160141 -0.141443,0.175615 -0.0799497,0.0128145 -0.130966,-0.0475508 -0.172956,-0.106143 -0.222683,-0.31319 -0.441497,-0.627589 -0.589549,-0.985348 -0.343171,-0.826094 -0.552556,-1.6945 -0.8107,-2.54727 -0.27378,-0.906527 -0.535712,-1.81708 -1.07811,-2.61029 -0.434727,-0.637986 -0.915312,-1.2343 -1.60705,-1.61673 -0.80804,-0.446332 -1.58207,-0.0444076 -1.7211,0.863248 -0.0721321,0.46495 0.0117668,0.904834 0.104692,1.35044 0.127259,0.613244 0.31182,1.20223 0.602605,1.76454 0.429649,0.827625 1.06369,1.52203 1.49325,2.34586 0.0627831,0.117587 0.208256,0.251132 0.0587534,0.379681 -0.142572,0.123148 -0.284015,0.00282081 -0.408372,-0.0809169 -0.066974,-0.0446494 -0.129838,-0.0960686 -0.188833,-0.149583 -0.319477,-0.289495 -0.586647,-0.628556 -0.827786,-0.979948 -0.687713,-1.00308 -1.44208,-1.94749 -2.31693,-2.79381 -0.102436,-0.0991312 -0.0995342,-0.220023 -0.0968746,-0.347201 0.0196651,-0.891375 -0.242509,-1.26356 -1.07287,-1.52066 -0.463741,-0.142572 -0.931269,-0.125324 -1.35455,0.106143 -1.1982,0.656442 -1.92274,1.65968 -2.05621,3.03358 -0.0511775,0.526766 0.0797886,1.03338 0.497752,1.41355 0.244927,0.222763 0.555377,0.314319 0.870985,0.383791 0.290785,0.0643144 0.564484,0.170216 0.810619,0.33761 0.093006,0.0631861 0.220345,0.120811 0.189961,0.262174 -0.0301423,0.132256 -0.141443,0.208095 -0.26709,0.238318 -0.111301,0.0274827 -0.228002,0.0393301 -0.343252,0.0421509 -0.358726,0.00781767 -0.709876,-0.0668128 -1.05966,-0.134996 -0.784668,-0.15313 -1.54169,0.218653 -1.88607,0.937798 -0.479376,1.00203 -0.155789,2.08933 0.826416,2.72192 1.43047,0.920712 2.97595,0.99365 4.58059,0.598414 0.232999,-0.0573833 0.450443,-0.175615 0.695369,-0.182063 0.0918777,-0.00128951 0.184884,0.0146682 0.221474,0.115331 0.0393301,0.103403 -0.0274827,0.171505 -0.107352,0.218572 -0.170216,0.097197 -0.345912,0.183514 -0.516208,0.281839 -0.475588,0.27652 -0.613002,0.69271 -0.385081,1.18119 0.297555,0.636777 0.842212,0.897178 1.50236,0.953836 1.23011,0.103564 2.36819,-0.210835 3.44614,-0.785877 0.527975,-0.280308 1.05184,-0.567305 1.62301,-0.755735 0.19246,-0.0631861 0.374442,-0.069553 0.509357,0.107029 0.125889,0.166589 0.0367511,0.316092 -0.0561744,0.466642 -0.234449,0.37557 -0.148052,0.671997 0.269911,0.826658 0.466239,0.174487 0.903787,0.0649592 1.27436,-0.249359 0.284337,-0.241783 0.53958,-0.518303 0.80804,-0.780397 0.282967,-0.274827 0.618402,-0.417721 1.01791,-0.379761 0.199149,0.0185367 0.292155,0.11388 0.277648,0.336724 -0.0207934,0.332613 -0.0824482,0.656039 -0.170296,0.971647 -0.408775,1.47351 -1.05313,2.83314 -1.90453,4.10629 -0.187382,0.281839 -0.38637,0.549896 -0.589307,0.81199l0.00249843 0.002982 0.938039 2.45185 0.1491 -0.26846 0.00660875 -0.00394913c0.0706814,-0.132336 0.140154,-0.266042 0.218653,-0.394591 0.716566,-1.17329 1.38856,-2.37198 1.898,-3.65158 0.301182,-0.752753 0.683603,-1.44877 1.18401,-2.08377 0.15998,-0.202856 0.341962,-0.339464 0.616951,-0.374684 0.42699,-0.0560938 0.8514,-0.0836571 1.27984,-0.0420703 0.267171,0.0267574 0.537082,0.03796 0.800384,-0.018295 0.26975,-0.0589952 0.514515,-0.172875 0.585277,-0.479457 0.070762,-0.30368 0.011928,-0.564484 -0.26435,-0.752994 -0.0931672,-0.0629443 -0.207128,-0.136366 -0.163768,-0.276278 0.0456165,-0.148133 0.176744,-0.187624 0.315527,-0.210916 0.277809,-0.0448105 0.523945,0.063992 0.780719,0.141363 1.01001,0.306581 2.03421,0.511936 3.09773,0.473009 0.712617,-0.0265156 1.26275,-0.347201 1.69627,-0.888393 0.678364,-0.848499 0.505569,-2.0197 -0.375893,-2.60119 -0.0221635,-0.014104 -0.0458583,-0.0274827 -0.0655233,-0.0457777 -0.0642338,-0.0615742 -0.144103,-0.122987 -0.108803,-0.2251 0.0328826,-0.0918777 0.125808,-0.0855108 0.205677,-0.0933284 0.285627,-0.0246619 0.546189,0.0457777 0.793856,0.18714 0.367994,0.21011 0.666597,0.506859 0.987605,0.77677 0.556666,0.468093 1.23124,0.517417 1.85988,0.134109 0.595916,-0.363239 0.839714,-1.0138 0.685053,-1.71239m-28.1351 -5.76307c0.0875256,-0.0168442 0.176663,-0.0235336 0.264511,-0.0381212 0.110011,-0.018295 0.251455,0.0104773 0.295943,-0.129515 0.0420703,-0.132014 -0.123148,-0.15184 -0.181982,-0.26709 0.350989,-0.0158771 0.536921,-0.265801 0.740019,-0.488644 0.0823676,-0.0903464 0.156031,-0.082287 0.212205,0.0169248 0.0432792,0.0719709 0.0772095,0.156031 0.176744,0.11525 0.111301,-0.0440852 0.0536759,-0.129918 0.0277245,-0.204468 -0.0525476,-0.144022 0.0193427,-0.198988 0.151679,-0.205435 0.472929,-0.0236948 0.917085,0.128145 1.20376,0.475427 0.296024,0.357759 0.204468,0.81336 0.00137011,1.21545 -0.191331,0.379036 -0.480504,0.649672 -0.906446,0.771773 -0.358807,0.102113 -0.688841,0.0809975 -0.995503,-0.129918 -0.306259,-0.209385 -0.572382,-0.482116 -0.990023,-0.539822 0.0510969,-0.0534342 0.0640726,-0.0782573 0.0851078,-0.0888151 0.0823676,-0.040539 0.171586,-0.0855108 0.145473,-0.19391 -0.0251455,-0.110979 -0.125808,-0.104773 -0.216316,-0.11114 -0.0641532,-0.00402972 -0.166266,0.0494044 -0.177953,-0.0526282 -0.0105579,-0.0905076 0.0824482,-0.129435 0.163687,-0.145473m27.2222 7.17936c-0.54369,0.290946 -0.955045,0.245007 -1.42104,-0.169007 -0.286997,-0.253953 -0.568594,-0.51242 -0.89605,-0.719225 -0.358887,-0.224859 -0.753156,-0.321975 -1.16459,-0.356308 -0.336482,-0.0274021 -0.602363,0.433679 -0.450604,0.763955 0.0786602,0.171747 0.218814,0.281355 0.385322,0.357356 0.366544,0.166669 0.513387,0.475266 0.561905,0.849063 0.158368,1.19691 -0.975999,2.0471 -1.86915,1.96207 -0.698271,-0.0665711 -1.4096,-0.0265156 -2.0907,-0.248876 -0.405874,-0.133867 -0.814569,-0.260804 -1.22334,-0.385161 -0.294653,-0.0905076 -0.582698,-0.0723739 -0.859137,0.0667322 -0.423041,0.212447 -0.510889,0.610262 -0.209626,0.971728 0.0668128,0.0815616 0.150551,0.152324 0.229291,0.224133 0.0772901,0.0706008 0.183433,0.127178 0.132336,0.262174 -0.047309,0.124357 -0.149342,0.172956 -0.2712,0.18432 -0.31174,0.0301423 -0.622109,0.026032 -0.933929,-0.0233724 -0.484534,-0.0758394 -0.958913,-0.0498074 -1.41588,0.155547 -0.265801,0.120972 -0.486065,0.290946 -0.669418,0.517417 -0.529103,0.651204 -0.911604,1.38486 -1.22197,2.15751 -0.451974,1.12002 -1.0362,2.17162 -1.64929,3.20774 -0.0495656,0.0838989 -0.096794,0.168845 -0.143942,0.253953l-0.115331 -0.165863c0.132336,-0.23719 0.264834,-0.474137 0.38911,-0.716646 -0.134915,0.223892 -0.284337,0.438756 -0.430939,0.656039l-0.144022 -0.209465c0.335112,-0.453263 0.650881,-0.920953 0.915553,-1.42644 0.420461,-0.805461 0.846,-1.60988 1.19312,-2.45072 0.166669,-0.404826 0.393059,-0.779591 0.576492,-1.1762 0.468979,-1.01235 0.598414,-2.09844 0.747917,-3.18268 0.032802,-0.235981 -0.0277245,-0.512259 0.281436,-0.6317 0.0394107,-0.015313 0.0576251,-0.107029 0.0668128,-0.166105 0.108883,-0.695369 0.217605,-1.39114 0.246458,-2.0957 0.00515805,-0.146682 -0.0145876,-0.295056 -0.0772901,-0.446896 -0.107513,0.737681 -0.214784,1.47488 -0.328906,2.26084 -0.150551,-0.127903 -0.129515,-0.258064 -0.138945,-0.371944 -0.0797886,-0.962862 -0.0365899,-1.92556 0.00548043,-2.88802 0.00652815,-0.15732 0.124357,-0.430939 -0.093006,-0.454795 -0.167637,-0.0181338 -0.134996,0.272732 -0.148052,0.426909 -0.0615742,0.791519 -0.134915,1.58376 -0.0721321,2.37746 0.0798691,1.02855 0.0366705,2.05129 -0.112671,3.06783 -0.0339303,0.23719 -0.0299812,0.48945 -0.172875,0.701736 -0.00257902,-0.000805945 -0.00257902,-0.00225665 -0.00523864,-0.00225665l0 0.0107191 0.00676994 -0.00685053c-0.148133,0.542482 -0.31448,1.07803 -0.562066,1.5836 -0.523945,1.07376 -1.05587,2.14277 -1.58497,3.21419 -0.0470672,0.0956657 -0.0980835,0.175615 -0.213414,0.220023 -0.302632,0.118152 -0.42707,0.415384 -0.613002,0.649672 -0.0183755,0.0239366 -0.0261932,0.0855108 -0.011928,0.0983253 0.223972,0.195442 0.0277245,0.312868 -0.0718903,0.446494l-0.293445 -0.423927c0.0969552,-0.116701 0.197698,-0.229372 0.288045,-0.352843 0.825207,-1.12204 1.53524,-2.29702 2.00285,-3.61225 0.252744,-0.712617 0.50299,-1.42918 0.510889,-2.20184 0.00515805,-0.541111 -0.0760812,-0.66563 -0.597205,-0.764842 -0.461323,-0.0876868 -0.889521,-0.00282081 -1.24962,0.316575 -0.267332,0.237593 -0.533133,0.475669 -0.789826,0.721804 -0.233321,0.221715 -0.499122,0.340915 -0.8215,0.318429 -0.215913,-0.0158771 -0.272329,-0.108883 -0.164816,-0.298683 0.106062,-0.186979 0.150631,-0.378391 0.112671,-0.589226 -0.0761618,-0.411193 -0.383952,-0.543932 -0.788698,-0.47446 -1.20626,0.20737 -2.2149,0.934251 -3.37941,1.24212 -0.680943,0.180854 -1.36866,0.26161 -2.06685,0.163284 -0.420461,-0.0589146 -0.743807,-0.286916 -0.942956,-0.670224 -0.110173,-0.209949 -0.0799497,-0.391609 0.102113,-0.551669 0.137494,-0.118957 0.297233,-0.197698 0.455762,-0.277729 0.137494,-0.0681023 0.26983,-0.144103 0.374603,-0.253953 0.251535,-0.266042 0.15458,-0.618402 -0.188672,-0.741469 -0.426909,-0.151679 -0.827625,0.00411032 -1.2339,0.0913942 -1.43555,0.308435 -2.82266,0.234772 -4.10218,-0.557633 -0.678525,-0.421751 -1.05708,-1.01783 -0.935299,-1.86286 0.106143,-0.734619 0.723013,-1.24559 1.4644,-1.18256 0.425539,0.0369123 0.843502,0.141363 1.27299,0.153291 0.237351,0.00507745 0.465191,-0.0132981 0.676107,-0.125808 0.399588,-0.214301 0.454634,-0.582859 0.125647,-0.89202 -0.290866,-0.274827 -0.637986,-0.452941 -1.02565,-0.554007 -0.239607,-0.0626219 -0.485743,-0.112591 -0.698029,-0.258064 -0.326247,-0.222763 -0.453183,-0.569561 -0.353568,-0.954722 0.0535953,-0.207128 0.103483,-0.414014 0.14507,-0.62356 0.0551266,-0.278938 0.167798,-0.378391 0.454795,-0.381051 0.235819,-0.00257902 0.437467,0.0873644 0.604942,0.246136 0.377343,0.358726 0.810942,0.541192 1.33884,0.455601 0.0693113,-0.0104773 0.158288,-0.0247425 0.180612,0.0668128 0.0851884,0.336724 0.383952,0.479376 0.61687,0.670707 0.855511,0.69682 1.59932,1.49591 2.283,2.35771 0.0735022,0.0922001 0.145473,0.284579 0.262174,0.204549 0.137494,-0.094215 -0.0171666,-0.243879 -0.0864779,-0.339464 -0.374764,-0.523622 -0.863086,-0.949726 -1.27984,-1.43692 -0.456971,-0.53418 -1.05168,-0.906285 -1.56394,-1.37381 -0.1545,-0.141282 -0.193669,-0.215026 0.0368317,-0.302391 0.337933,-0.131208 0.57617,-0.385161 0.757024,-0.690292 0.0996148,-0.169168 0.19391,-0.195361 0.326247,-0.0448105 0.588017,0.668531 1.22197,1.29556 1.70401,2.0554 0.377182,0.594384 0.821177,1.1446 1.33722,1.62906 0.163768,0.153452 0.340512,0.292316 0.574961,0.322539 0.182305,0.0235336 0.361708,0.0196651 0.488644,-0.141846 0.132336,-0.165863 0.114122,-0.350908 0.0341721,-0.531521 -0.132336,-0.303599 -0.315769,-0.579152 -0.500411,-0.85277 -0.394268,-0.584149 -0.817309,-1.15145 -1.13042,-1.78372 -0.42159,-0.851561 -0.668128,-1.75027 -0.624769,-2.70918 0.032802,-0.742356 0.572382,-1.03846 1.22342,-0.682071 0.39048,0.211883 0.719064,0.497752 0.96665,0.866955 0.233079,0.347282 0.58294,0.594707 0.778059,0.981238 0.343252,0.682232 0.561905,1.40533 0.783298,2.12955 0.258225,0.843663 0.450604,1.70683 0.792324,2.52253 0.172956,0.414095 0.402247,0.796435 0.679976,1.14783 0.129596,0.161914 0.289334,0.315608 0.522655,0.252503 0.248715,-0.0676994 0.329954,-0.289576 0.366786,-0.514676 0.0704396,-0.447783 -0.0447299,-0.866874 -0.242509,-1.2667 -0.106062,-0.214623 -0.128226,-0.445204 -0.124277,-0.678444 0.00515805,-0.226229 0.1545,-0.324796 0.333984,-0.196328 0.327375,0.234369 0.686343,0.443834 0.77008,0.906285 0.0773707,0.42981 0.205677,0.848579 0.30779,1.27315 0.0510163,0.212528 0.132336,0.407647 0.284337,0.567305 0.350908,0.366947 1.02033,0.262174 1.25333,-0.189881 0.118071,-0.228163 0.166347,-0.473009 0.193991,-0.720515 0.138864,-1.27815 0.145473,-2.55041 -0.298603,-3.78141 -0.404746,-1.11857 -1.04144,-2.08522 -1.94644,-2.86892 -0.222763,-0.191976 -0.449234,-0.382421 -0.652332,-0.592853 -0.219942,-0.229453 -0.286997,-0.509599 -0.171424,-0.81618 0.0693113,-0.181902 0.193749,-0.245168 0.382179,-0.166508 0.217686,0.0895405 0.39048,0.247506 0.592208,0.361386 0.198988,0.112832 0.406116,0.276359 0.641693,0.111704 0.251697,-0.176986 0.277809,-0.445607 0.214784,-0.723336 -0.119119,-0.519593 -0.409904,-0.92724 -0.848579,-1.22326 -0.593498,-0.400635 -1.25615,-0.673367 -1.89792,-0.982125 -0.732282,-0.352682 -1.31522,-0.8514 -1.65694,-1.5994 -0.15595,-0.340673 -0.12202,-0.681185 0.03796,-1.00872 0.126936,-0.262819 0.381131,-0.379681 0.667967,-0.315608 0.334064,0.0746305 0.641855,0.216316 0.939087,0.377343 0.19246,0.104934 0.406116,0.235578 0.598575,0.107029 0.200439,-0.134915 0.301262,-0.370493 0.286916,-0.632667 -0.00394913,-0.0624607 0,-0.126695 -0.0144264,-0.18706 -0.0549654,-0.243798 0.0627025,-0.220023 0.213575,-0.14781 -0.0418285,-0.0638308 -0.0851884,-0.127178 -0.127178,-0.19117 -0.158449,-0.237351 -0.219942,-0.517497 -0.555377,-0.652412 -0.235819,-0.0955851 -0.400716,-0.395719 -0.569884,-0.62356 -0.566982,-0.758233 -1.07908,-1.54572 -1.41701,-2.4429 -0.371944,-0.981963 -0.176824,-1.88881 0.252744,-2.78736 0.356228,-0.745096 0.920792,-1.22874 1.72255,-1.44474 0.552717,-0.1491 1.04507,-0.0434404 1.49051,0.293203 0.655072,0.495495 1.0649,1.16072 1.32667,1.93249 0.195361,0.57883 0.281839,1.17612 0.345992,1.7809 0.0326408,0.316253 0.138623,0.609375 0.339222,0.85817 0.204146,0.255485 0.508229,0.282725 0.751866,0.0640726 0.296024,-0.264189 0.42562,-0.614372 0.433437,-1.00187 0.00531924,-0.248634 -0.0116056,-0.500492 -0.0469866,-0.746627 -0.107513,-0.743645 0.0719709,-1.4291 0.460839,-2.04581 0.766212,-1.21802 2.1285,-1.16975 2.9014,-0.169248 0.648463,0.840036 0.840923,1.81934 0.709957,2.85691 -0.166508,1.32546 -0.817309,2.45845 -1.5051,3.56784 -0.339142,0.546269 -0.681185,1.08972 -0.899918,1.69772 -0.11114,0.310208 -0.108641,0.639114 0.0302229,0.939168 0.156031,0.337852 0.666839,0.336724 0.952385,0.011525 0.125647,-0.142733 0.195119,-0.316656 0.255323,-0.495979 0.179403,-0.534744 0.381051,-1.05724 0.73478,-1.50784 0.217283,-0.276197 0.475427,-0.473009 0.843744,-0.407566 0.375893,0.0668128 0.599784,0.323909 0.735747,0.669337 0.267332,0.677558 0.131208,1.3124 -0.19109,1.93096 -0.147971,0.284176 -0.30908,0.561744 -0.448025,0.85132 -0.133464,0.27926 -0.366624,0.462048 -0.598414,0.637744 -1.39251,1.05732 -2.11673,2.49641 -2.40889,4.18221 -0.238399,1.37809 -0.459711,2.75851 -0.690131,4.1378 -0.212286,1.26566 -0.235981,2.53583 -0.100985,3.81035 0.0276439,0.258144 0.0407002,0.555457 0.352198,0.62767 0.31319,0.0718903 0.449476,-0.198101 0.592289,-0.411757 0.485904,-0.72535 0.53555,-1.55306 0.548687,-2.38882 0.00797886,-0.455601 -0.032802,-0.909106 -0.0758394,-1.36245 -0.0314319,-0.321894 -0.0211158,-0.643144 0.132336,-0.941505 0.0824482,-0.160867 0.198988,-0.277648 0.395558,-0.264834 0.195119,0.0120086 0.23042,0.166508 0.273618,0.314722 0.0538371,0.188752 0.100824,0.381131 0.171666,0.563114 0.167637,0.441658 0.527652,0.552717 0.919261,0.293283 0.427312,-0.281114 0.588179,-0.749287 0.424491,-1.23656 -0.0653621,-0.193427 -0.15184,-0.382501 -0.197698,-0.581489 -0.250085,-1.07755 0.322297,-2.17436 1.34778,-2.59982 0.353649,-0.146763 0.449234,-0.107432 0.622351,0.253953 0.0772095,0.161028 0.14918,0.322056 0.323426,0.409904 0.417802,0.213817 0.648383,0.163768 0.924661,-0.256613 0.352359,-0.536921 0.708506,-1.07013 1.15016,-1.5404 0.264431,-0.280308 0.547317,-0.534261 0.890489,-0.719145 0.369365,-0.198827 0.726962,-0.125808 1.08206,0.0233724 0.142733,0.0605265 0.204307,0.191654 0.213495,0.346315 0.0116862,0.204065 0.0287722,0.409904 0.0432792,0.613969 0.0128951,0.178517 0.0941344,0.321088 0.219942,0.445526 0.318348,0.311659 0.348491,0.520157 0.186012,0.949726 -0.35115,0.928771 -0.936427,1.69724 -1.61503,2.40309 -0.147971,0.154903 -0.296104,0.309322 -0.450604,0.457454 -0.183433,0.175938 -0.330115,0.370573 -0.419091,0.611712 -0.157079,0.43384 0.0471478,0.757105 0.513468,0.768549 0.239607,0.00572221 0.481955,-0.0114444 0.720515,-0.0452941 0.597205,-0.087848 1.07787,0.0965522 1.4852,0.544335 0.503071,0.551992 0.899918,1.1529 1.02025,1.90316 0.0892181,0.566096 -0.116459,1.00461 -0.566982,1.24728z"/>
   <path id="_145685224" class="fil0" d="M16.7405 25.814c0.020874,-0.193427 -0.0813198,-0.288287 -0.215268,-0.360983 -0.654347,-0.353407 -1.33481,-0.635488 -2.08627,-0.70496 -0.613727,-0.0565773 -1.23173,-0.0191815 -1.8436,-0.0685859 -2.20289,-0.178033 -4.26974,-0.792405 -6.1463,-1.99012 -0.285385,-0.181821 -0.586728,-0.3389 -0.88259,-0.503554 -0.0581086,-0.032399 -0.138139,-0.102033 -0.189075,-0.023856 -0.0606071,0.0939732 0.040539,0.139993 0.105256,0.179806 0.219942,0.135963 0.448105,0.259434 0.664018,0.401119 1.74471,1.14436 3.65174,1.8432 5.71955,2.11907 0.76331,0.102274 1.52993,0.101146 2.29606,0.122181 0.800142,0.0220023 1.51461,0.286352 2.24488,0.729219 -0.202131,0.0618966 -0.321491,-0.0196651 -0.446655,-0.043924 -0.129032,-0.0245813 -0.225503,0.0287722 -0.253389,0.139106 -0.0348974,0.137736 0.103,0.125727 0.178678,0.133062 0.371299,0.0352198 0.669901,0.22236 0.958913,0.434646 0.0599623,0.0440852 0.122262,0.143136 0.20197,0.0681023 0.0760812,-0.0716485 -0.0136205,-0.142249 -0.049485,-0.210432 -0.0770483,-0.146682 -0.2766,-0.236061 -0.256693,-0.419897z"/>
   <path id="_145685704" class="fil0" d="M17.2339 12.1923c-0.175696,-0.968343 -0.335434,-1.95353 -0.683441,-2.89689 -0.364448,-0.987121 -0.786763,-1.95063 -1.19231,-2.92091 -0.329712,-0.78902 -0.720595,-1.54951 -1.1795,-2.27599 -0.470591,-0.745016 -1.00743,-1.44973 -1.39364,-2.24754 -0.0362675,-0.0745499 -0.0794662,-0.193991 -0.188269,-0.136366 -0.0905076,0.0486791 -0.0209546,0.14507 0.00902658,0.214623 0.18037,0.419575 0.425217,0.803285 0.666194,1.18845 0.594707,0.952063 1.22431,1.88075 1.66283,2.9251 0.351714,0.838344 0.689728,1.68177 1.02355,2.52712 0.218975,0.553604 0.490901,1.08923 0.604701,1.68168 0.127984,0.66563 0.258064,1.33037 0.396606,1.99367 0.0245813,0.118635 0.0248231,0.322539 0.198585,0.289576 0.158126,-0.0297394 0.049485,-0.213172 0.0756782,-0.342527z"/>
   <path id="_145685872" class="fil0" d="M23.3467 22.609c0.591564,-0.828511 1.05756,-1.73488 1.54548,-2.6219 0.872516,-1.58602 1.92943,-3.00964 3.28624,-4.20881 0.0537565,-0.0470672 0.111865,-0.0901046 0.119441,-0.182063 -0.0159577,-0.0922001 -0.0773707,-0.122987 -0.171424,-0.088251 -0.111059,0.0414256 -0.197779,0.118474 -0.282484,0.198021 -0.331243,0.311659 -0.64532,0.638711 -0.947469,0.978175 -0.754284,0.84729 -1.42435,1.75164 -1.98907,2.73892 -0.58294,1.01936 -1.14396,2.05266 -1.79387,3.03301 -0.07592,0.114364 -0.26435,0.26983 -0.0959075,0.383388 0.156273,0.104934 0.246377,-0.114364 0.329067,-0.2305z"/>
   <path id="_145686016" class="fil0" d="M18.2151 9.19809c0.388546,-0.946985 0.829156,-1.87519 1.08464,-2.87118 0.326166,-1.27033 0.572221,-2.55501 0.633876,-3.82993 -0.0058028,-0.110979 -0.00539983,-0.18303 -0.014507,-0.25347 -0.011928,-0.0914748 0.0159577,-0.230581 -0.117104,-0.231951 -0.145957,-0.00072535 -0.138703,0.14096 -0.134915,0.244765 0.0226471,0.628234 -0.0801109,1.24341 -0.193669,1.85593 -0.211077,1.13759 -0.392898,2.28244 -0.846806,3.35974 -0.228163,0.541434 -0.445446,1.08738 -0.659988,1.63454 -0.0447299,0.114525 -0.170619,0.289092 -0.0176502,0.354132 0.168684,0.0713261 0.21696,-0.142733 0.266123,-0.262577z"/>
   <path id="_145686928" class="fil0" d="M17.4477 14.4148c-0.0154741,-0.06778 -0.061816,-0.113155 -0.131933,-0.109044 -0.0706814,0.00386854 -0.112188,0.0544819 -0.116378,0.123954 -0.00475508,0.0801109 -0.00282081,0.160544 0.00120892,0.240172 0.0380406,0.7293 0.0771289,1.45795 0.115653,2.18717 0.0660875,0.691823 0.111059,1.38437 0.128145,2.07877 0.00346556,0.141121 0.0327214,0.281839 0.0594787,0.421348 0.0121698,0.0631055 0.0561744,0.114364 0.130805,0.110737 0.076726,-0.00362675 0.107271,-0.0635891 0.113961,-0.126775 0.0124921,-0.114767 0.0213575,-0.230984 0.0185367,-0.346315 -0.0365899,-1.46883 -0.174729,-2.93146 -0.290704,-4.39587 -0.00467448,-0.0616548 -0.0149906,-0.123954 -0.0287722,-0.184158z"/>
   <path id="_145686208" class="fil0" d="M11.4319 23.3365c0.0240978,0.0635085 0.0529506,0.150712 0.141927,0.131933 0.0752753,-0.0154741 0.0658457,-0.0937314 0.0560132,-0.193507 -0.250165,-0.725753 -0.369203,-1.52243 -0.580845,-2.29509 -0.251616,-0.916601 -0.734861,-1.73568 -1.18297,-2.56548 -0.312626,-0.580119 -0.645643,-1.14871 -0.971083,-1.72198 -0.0333661,-0.0589146 -0.0662487,-0.157804 -0.147085,-0.123068 -0.108883,0.0462612 -0.0221635,0.136366 -0.00628637,0.206805 0.00556102,0.0252261 0.0216799,0.0489209 0.0346556,0.0722933 0.360741,0.655072 0.738084,1.30241 1.07884,1.96804 0.50291,0.983253 0.998324,1.969 1.1791,3.08064 0.0798691,0.490015 0.220184,0.97205 0.397734,1.43942z"/>
   <path id="_145686280" class="fil0" d="M6.86182 24.623c0.0799497,-0.00523864 0.160705,-0.0121698 0.238479,-0.0294976 0.0855108,-0.0186979 0.195361,-0.0398137 0.178759,-0.156031 -0.0147488,-0.102274 -0.120166,-0.0905882 -0.197537,-0.0869615 -0.159899,0.00789826 -0.319638,0.0237754 -0.479457,0.0370735 -0.657409,0.0533536 -1.32376,0.112107 -1.97255,0.0150712 -1.08424,-0.162881 -2.21264,-0.158771 -3.20992,-0.720515 -0.0540789,-0.0304647 -0.126292,-0.0511775 -0.16538,0.0192621 -0.0371541,0.0667322 0.0114444,0.119844 0.064395,0.156434 0.162237,0.113477 0.339706,0.199471 0.527813,0.254356 1.31514,0.383469 2.65277,0.609375 4.13901,0.557633 0.218411,-0.0117668 0.54764,-0.0278857 0.876385,-0.0468254z"/>
   <path id="_145686424" class="fil0" d="M19.1233 13.1147c-0.0513387,0.0772095 -0.156434,0.16546 -0.0609294,0.255162 0.106788,0.10026 0.198827,-0.000967134 0.266284,-0.0824482 0.256935,-0.310611 0.557714,-0.576331 0.868325,-0.828028 0.973823,-0.79031 1.65952,-1.77493 2.03985,-2.97128 0.0188591,-0.058834 0.0395719,-0.117587 0.0552878,-0.163365 -0.00668934,-0.058834 -0.00805945,-0.111946 -0.063992,-0.11654 -0.029014,-0.00217605 -0.0726156,0.0169248 -0.0886539,0.0411838 -0.0447299,0.0655233 -0.0867197,0.135318 -0.115814,0.208498 -0.480585,1.22254 -1.23253,2.23803 -2.28123,3.03398 -0.23316,0.177227 -0.454553,0.373797 -0.619127,0.622834z"/>
   <path id="_145686784" class="fil0" d="M15.8934 13.4738c0.0340109,0.0510969 0.0666516,0.118796 0.141524,0.0991312 0.0901046,-0.0237754 0.0811587,-0.103886 0.0727768,-0.204952 -0.023856,-0.0656845 -0.0557714,-0.158288 -0.090427,-0.249843 -0.293686,-0.773465 -0.974146,-1.1583 -1.60963,-1.58054 -0.697465,-0.463257 -1.48963,-0.764922 -2.17444,-1.25437 -0.201164,-0.144103 -0.438273,-0.237512 -0.659988,-0.352279 -0.0539983,-0.0281275 -0.122262,-0.0740663 -0.167153,-0.0058834 -0.0564967,0.0851884 0.0308677,0.123471 0.0824482,0.166428 0.0269186,0.0231306 0.0594787,0.0393301 0.0901852,0.0577057 0.958913,0.566499 1.92347,1.12349 2.87464,1.70272 0.608085,0.370251 1.16225,0.803769 1.3909,1.52702 0.0105579,0.0335273 0.0297394,0.0649592 0.0491626,0.0948597z"/>
   <path id="_145686592" class="fil0" d="M22.1923 23.9215c0.0519834,-0.0666516 0.144828,-0.145151 0.0548043,-0.229694 -0.0967134,-0.0909912 -0.156676,0.0191815 -0.215429,0.0781767 -0.0689083,0.069553 -0.134512,0.142733 -0.196248,0.218733 -0.645562,0.792889 -1.40468,1.45336 -2.24907,2.03203 -0.541111,0.371138 -1.0661,0.77403 -1.53774,1.23753 -0.0899435,0.088251 -0.17352,0.180209 -0.225423,0.295056 -0.035784,0.0796274 -0.0120892,0.139026 0.0806751,0.14773 0.0726156,-0.0108803 0.116378,-0.0553684 0.157804,-0.102033 0.528539,-0.600026 1.18119,-1.05813 1.8249,-1.51195 0.875176,-0.616467 1.64985,-1.32385 2.30573,-2.16557z"/>
   <path id="_145686664" class="fil0" d="M17.0345 23.1168c-0.0942956,0.00604459 -0.0931672,0.139993 -0.0967134,0.225987 -0.0156353,0.392979 0.00241783,0.784023 0.0544819,1.17475 0.0132175,0.0988894 0.0675382,0.205838 -0.0196651,0.314722 -0.0961492,-0.0430375 -0.107916,-0.135318 -0.139912,-0.213172 -0.0679412,-0.164493 -0.12742,-0.333419 -0.205597,-0.493158 -0.0355422,-0.0715679 -0.0833347,-0.19117 -0.188188,-0.14636 -0.093409,0.0400555 -0.0313513,0.142249 -0.0104773,0.215026 0.0265962,0.0948597 0.0723739,0.18432 0.0902658,0.279985 0.0370735,0.196328 0.155789,0.373717 0.147891,0.654588 -0.298925,-0.359935 -0.609214,-0.58971 -0.941747,-0.790471 -0.0626219,-0.03796 -0.155225,-0.107594 -0.214623,-0.0205516 -0.0585922,0.0861555 0.0348974,0.147246 0.0962298,0.192057 0.446655,0.327858 0.777012,0.865101 1.44119,0.805139 0.0581086,-0.00531924 0.0856719,0.0960686 0.169329,0.0577057 0.0963104,-0.685779 -0.0693113,-1.36422 -0.0892181,-2.04766 -0.00209546,-0.0768066 0.0302229,-0.216396 -0.0932478,-0.208579z"/>
   <path id="_145686808" class="fil0" d="M26.8084 22.2529c-0.0656845,0.0124921 -0.162479,0.0275633 -0.258144,0.0485985 -0.728574,0.160141 -1.35794,0.586003 -2.07563,0.776286 -0.0742275,0.0196651 -0.169168,0.0686665 -0.124518,0.168362 0.0420703,0.0942956 0.139509,0.0539983 0.214059,0.0324796 0.506295,-0.149503 0.98019,-0.381534 1.46287,-0.588823 0.770806,-0.330196 1.49132,-0.219539 2.20394,0.170216 0.342204,0.186899 0.623318,0.44198 0.899596,0.708184 0.0539177,0.0523058 0.121375,0.142733 0.200277,0.0654427 0.0756782,-0.0734216 -0.00427151,-0.151921 -0.0556908,-0.206805 -0.659344,-0.705605 -1.44691,-1.14831 -2.46676,-1.17394z"/>
   <path id="_145687072" class="fil0" d="M25.2781 25.9284c-0.0440852,-0.00523864 -0.0888957,-0.0073341 -0.133384,-0.0110414 -0.570609,-0.0464224 -1.1305,-0.132578 -1.67604,-0.323909 -0.368236,-0.128871 -0.7484,-0.246539 -1.08504,-0.19528 -0.271362,0.0221635 -0.480101,0.0237754 -0.669579,0.11251 -0.0970358,0.0453747 -0.268621,0.0732604 -0.220668,0.217283 0.0454553,0.136366 0.198424,0.0842212 0.306662,0.0481149 0.448508,-0.1491 0.895405,-0.135963 1.34254,0.00128951 0.221554,0.06778 0.444156,0.134109 0.662406,0.210996 0.470108,0.165541 0.961573,0.183433 1.45078,0.216316 0.0889763,0.00564161 0.193991,-0.000402972 0.20205,-0.121698 0.00805945,-0.11662 -0.0867197,-0.141766 -0.179726,-0.15458z"/>
   <path id="_145687144" class="fil0" d="M20.8308 22.9686c0.00830123,0.32262 -0.0221635,0.640807 -0.0959075,0.954561 -0.0186979,0.0792244 -0.047309,0.171102 0.0601235,0.199955 0.10034,0.0276439 0.139428,-0.0552878 0.16401,-0.135399 0.0210352,-0.0681023 0.0411838,-0.137252 0.0536759,-0.207289 0.132497,-0.742195 0.00628637,-1.45425 -0.255807,-2.15002 -0.106385,-0.282645 -0.243395,-0.557714 -0.229372,-0.872919 0.00072535,-0.0265156 0.00362675,-0.0530312 0.00193427,-0.0801109 -0.00572221,-0.0939732 0.0796274,-0.250649 -0.0850272,-0.251535 -0.131853,-0.000241783 -0.110495,0.159577 -0.117587,0.261207 -0.0199068,0.281839 0.043521,0.548446 0.152727,0.806993 0.198827,0.47172 0.338255,0.957866 0.351231,1.47456z"/>
   <path id="_145687288" class="fil0" d="M23.1183 20.7755c-0.00233724,0.0553684 -0.0159577,0.129838 0.0655233,0.146763 0.0899435,0.0187785 0.126292,-0.0531118 0.143781,-0.123954 0.0539983,-0.217283 0.0808363,-0.436983 0.0672964,-0.662084 -0.0320766,-0.52596 -0.131933,-1.04201 -0.231387,-1.55765 -0.0887345,-0.459227 -0.0784184,-0.901691 0.132578,-1.32941 0.0308677,-0.0625413 0.12202,-0.153774 0.0175696,-0.204549 -0.0830929,-0.0400555 -0.134673,0.0672964 -0.174568,0.131853 -0.254759,0.409098 -0.271281,0.85406 -0.197457,1.31562 0.120166,0.754042 0.326085,1.50148 0.176663,2.2834z"/>
   <path id="_145686952" class="fil0" d="M15.9988 16.225c-0.582215,-0.340995 -1.21359,-0.600832 -1.72754,-1.05426 -0.0313513,-0.0277245 -0.0747111,-0.0424733 -0.112671,-0.0631055 -0.0290946,0.0206322 -0.061413,0.0311095 -0.0684247,0.0507745 -0.0306259,0.085269 0.0363481,0.129515 0.0859943,0.177953 0.392979,0.387176 0.874128,0.643708 1.35568,0.892584 0.515079,0.266445 0.976805,0.582295 1.28661,1.08786 0.0455359,0.0742275 0.11388,0.200841 0.223892,0.119844 0.0847048,-0.0619772 0.0103161,-0.163284 -0.0355422,-0.238801 -0.250407,-0.412886 -0.595916,-0.731959 -1.008,-0.972856z"/>
   <path id="_145687792" class="fil0" d="M9.81246 26.3974c-0.0411032,0.0163607 -0.0818034,0.0355422 -0.120247,0.0574639 -0.650398,0.374361 -1.3531,0.627186 -2.0504,0.893471 -0.204468,0.0783378 -0.436177,0.0407002 -0.698432,0.167395 0.274021,0.112752 0.487194,0.0681829 0.683683,0.00644756 0.712294,-0.223569 1.40581,-0.498235 2.07192,-0.838102 0.070359,-0.0361063 0.134029,-0.0864779 0.196167,-0.135882 0.0408614,-0.0322378 0.0898629,-0.0772901 0.059237,-0.133545 -0.0316736,-0.0581892 -0.0921195,-0.03796 -0.141927,-0.0172472z"/>
   <path id="_145687432" class="fil0" d="M22.7841 20.1212c-0.195764,1.36052 -0.658215,2.62214 -1.37132,3.79785 0.913861,-1.09407 1.25486,-2.40486 1.37132,-3.79785z"/>
   <path id="_145687600" class="fil0" d="M19.6026 27.9436c-0.755573,-0.055852 -1.39574,0.26572 -2.02324,0.624769 -0.0679412,0.0385242 -0.14104,0.109367 -0.0735022,0.194475 0.0547237,0.069553 0.130402,0.018295 0.19254,-0.0160383 0.038766,-0.020874 0.0748723,-0.0475508 0.112913,-0.0704396 0.455923,-0.274747 0.901852,-0.576412 1.52025,-0.540305 0.0573833,-0.002982 0.164252,-0.00459389 0.269911,-0.0155547 0.0656039,-0.00717291 0.162317,0.00185367 0.152243,-0.101065 -0.00749529,-0.0764036 -0.0900241,-0.0714067 -0.151115,-0.0758394z"/>
   <path id="_145687744" class="fil0" d="M17.9938 27.1431c0.136849,-0.13959 0.269427,-0.28337 0.408533,-0.420139 0.422315,-0.41619 0.872032,-0.805623 1.24744,-1.26348 -0.578427,0.422235 -1.14364,0.851803 -1.62922,1.37333 -0.0598817,0.0641532 -0.109689,0.139026 -0.157159,0.214059 -0.0275633,0.043521 -0.0568997,0.102919 -0.00257902,0.143619 0.0568191,0.0432792 0.097197,-0.0109609 0.132981,-0.0473896z"/>
   <path id="_145687936" class="fil0" d="M19.0093 11.2316c0.061816,0.0738246 0.151759,0.069956 0.197698,-0.0215187 0.043521,-0.0867197 0.0108803,-0.167959 -0.0965522,-0.167959 -0.187382,0.000644756 -0.148455,-0.106546 -0.113155,-0.21414 0.0442464,-0.135238 0.11662,-0.266123 0.13282,-0.404746 0.0218411,-0.186576 0.19657,-0.347282 0.0621384,-0.559971 -0.240091,0.689647 -0.492674,1.36874 -0.718661,2.06 0.21148,-0.168281 0.236706,-0.430455 0.358807,-0.641371 0.0456971,-0.078902 0.0670546,-0.181176 0.176905,-0.050291z"/>
   <path id="_145688008" class="fil0" d="M17.9141 28.1971c0.567627,-0.470833 1.11873,-0.860185 1.69651,-1.21706 -0.420623,-0.0221635 -1.60979,0.81618 -1.69651,1.21706z"/>
   <path id="_145688152" class="fil0" d="M14.5554 25.961c-0.134754,0.0730186 -0.245813,0.172795 -0.337772,0.296265 -0.186979,0.250729 -0.316414,0.534825 -0.470591,0.804655 -0.0407002,0.0714067 -0.143136,0.163365 -0.0429569,0.230097 0.115734,0.0774513 0.163849,-0.0571415 0.214623,-0.132578 0.236625,-0.352601 0.388627,-0.763552 0.724706,-1.04765 0.0250649,-0.020874 0.0371541,-0.0571415 0.0548043,-0.0855108 -0.0266768,-0.0850272 -0.0735022,-0.103483 -0.142813,-0.0652815z"/>
   <path id="_145687816" class="fil0" d="M14.4396 23.3017c0.0367511,0.145473 0.0952627,0.285707 0.149825,0.4257 0.0199068,0.0510163 0.0641532,0.0933284 0.12468,0.0796274 0.0641532,-0.0153935 0.0772901,-0.075517 0.0627831,-0.128548 -0.114364,-0.419414 -0.231548,-0.838102 -0.350908,-1.25671 -0.011525,-0.0402167 -0.0384436,-0.0809975 -0.0965522,-0.081884 -0.0945373,0.0466642 -0.0681023,0.132256 -0.0533536,0.206805 0.0505327,0.252503 0.100501,0.505489 0.163526,0.755009z"/>
   <path id="_145688296" class="fil0" d="M25.4917 24.8544c-0.658699,-0.322539 -1.35528,-0.490095 -2.09151,-0.478651 0.710521,0.0980835 1.38679,0.341721 2.09151,0.478651z"/>
   <path id="_145688464" class="fil0" d="M14.973 26.6372c0.580603,-0.280146 1.13219,-0.221635 1.68966,-0.0689083 -0.401683,-0.384597 -1.35536,-0.352682 -1.68966,0.0689083z"/>
   <path id="_145688608" class="fil0" d="M21.9984 21.5046c-0.166911,0.544416 -0.326891,1.09101 -0.521205,1.62624 0.283209,-0.244927 0.611309,-1.26622 0.521205,-1.62624z"/>
   <path id="_145687384" class="fil0" d="M7.32402 25.8103c0.0292558,0.0730186 0.0884928,0.0365899 0.132739,0.0141846 0.318026,-0.156756 0.63718,-0.311498 0.951015,-0.476233 0.136527,-0.0718097 0.295056,-0.115734 0.395558,-0.243798 -0.0118474,-0.0214381 -0.0236142,-0.0430375 -0.0355422,-0.0640726 -0.458824,0.223408 -0.918132,0.44601 -1.37655,0.670627 -0.0389271,0.0189397 -0.0873644,0.0494044 -0.0672158,0.0992924z"/>
   <path id="_145689520" class="fil0" d="M19.029 25.5331c-0.373233,0.262254 -0.740744,0.527975 -0.941183,0.954319 0.318268,-0.315044 0.712455,-0.553523 0.941183,-0.954319z"/>
   <path id="_145688800" class="fil0" d="M19.0573 12.167c0.38371,-0.263544 0.715679,-0.578185 0.955448,-0.984059 -0.351553,0.295298 -0.713664,0.581973 -0.955448,0.984059z"/>
   <path id="_145688872" class="fil0" d="M17.9328 15.3549c0.0722127,0.0155547 0.121295,-0.034978 0.143297,-0.0953433 0.0607682,-0.166831 0.115734,-0.336724 0.168684,-0.506456 0.0190203,-0.0601235 0.0261932,-0.129032 -0.0459389,-0.162398 -0.0722933,-0.0331243 -0.119199,0.0151518 -0.152001,0.0709232 -0.0957463,0.163123 -0.152485,0.340351 -0.194716,0.517417 -0.0104773,0.0806751 -0.0118474,0.155547 0.0806751,0.175857z"/>
   <path id="_145689016" class="fil0" d="M23.9316 24.0683c0.523461,-0.100098 0.996873,0.00137011 1.46166,-0.110737 -0.597125,-0.163607 -1.17152,-0.128951 -1.46166,0.110737z"/>
   <path id="_145689376" class="fil0" d="M12.0551 26.5471c0.412966,-0.183675 0.835443,-0.347443 1.16104,-0.674092 -0.42707,0.156031 -0.834475,0.346315 -1.16104,0.674092z"/>
   <path id="_145689184" class="fil0" d="M24.2232 22.1913c0.467932,-0.42707 0.938926,-0.8514 1.4125,-1.27871 -0.534664,0.352279 -1.01597,0.769033 -1.4125,1.27871z"/>
   <path id="_145689256" class="fil0" d="M11.5965 25.385c-0.102597,0.0461001 -0.257499,0.110092 -0.407325,0.184642 -0.0651204,0.0330437 -0.115895,0.0929255 -0.0732604,0.173923 0.0355422,0.06778 0.103725,0.0658457 0.163204,0.0402167 0.153935,-0.0670546 0.306823,-0.136769 0.456568,-0.213172 0.0568191,-0.0288528 0.0970358,-0.0846242 0.0593981,-0.154177 -0.0309483,-0.0567385 -0.0884928,-0.0475508 -0.198585,-0.0314319z"/>
   <path id="_145689400" class="fil0" d="M15.5801 10.2403c-0.317542,-0.395235 -0.641452,-0.781041 -1.03499,-1.09899 0.294573,0.415948 0.610826,0.810136 1.03499,1.09899z"/>
   <path id="_145689664" class="fil0" d="M13.4266 9.81165c-0.0130563,0.0215187 -0.0262738,0.0432792 -0.0393301,0.064798 0.428118,0.253953 0.856317,0.507342 1.28468,0.760812 -0.343655,-0.38774 -0.797241,-0.602041 -1.24535,-0.82561z"/>
   <path id="_145689736" class="fil0" d="M17.0295 27.1229c-0.0224859,-0.0543207 -0.0569803,-0.128145 -0.132659,-0.10574 -0.0854302,0.0258708 -0.0547237,0.10437 -0.0336079,0.157885 0.0727768,0.184964 0.110737,0.376054 0.11654,0.573188 0.00378794,0.121375 0.0658457,0.193024 0.175212,0.229614 0.00959075,-0.292639 -0.0130563,-0.580925 -0.125486,-0.854946z"/>
   <path id="_145689880" class="fil0" d="M9.12048 22.464c0.4718,0.425861 0.910718,0.887829 1.39259,1.30321 -0.386128,-0.519512 -0.889924,-0.910798 -1.39259,-1.30321z"/>
   <path id="_145689544" class="fil0" d="M5.84278 25.3321c0.440932,0.0205516 0.847532,-0.172311 1.28081,-0.198343 -0.447138,-0.0601235 -0.870098,0.0306259 -1.28081,0.198343z"/>
   <path id="_145688680" class="fil0" d="M24.7491 21.2722c0.386209,-0.214946 0.711327,-0.502345 0.997276,-0.835765 -0.365174,0.239769 -0.70899,0.504522 -0.997276,0.835765z"/>
   <path id="_145669144" class="fil0" d="M18.9329 11.9083c0.0203904,0.0186979 0.0406196,0.0373153 0.06101,0.0565773 0.231145,-0.238721 0.462371,-0.4772 0.693516,-0.715518 -0.0252261,-0.0235336 -0.0506939,-0.0475508 -0.0760006,-0.0714067 -0.236948,0.233885 -0.498799,0.44472 -0.678525,0.730347z"/>
   <path id="_145778416" class="fil0" d="M16.7246 14.7863c-0.0980835,-0.0137817 -0.119763,0.097197 -0.0887345,0.176341 0.0525476,0.13693 0.101549,0.283128 0.255968,0.340754 0.0978417,-0.0346556 0.100501,-0.111543 0.0751141,-0.176502 -0.0516611,-0.133545 -0.0630249,-0.316092 -0.242348,-0.340592z"/>
   <path id="_145768480" class="fil0" d="M24.9227 22.2247c0.336079,-0.150953 0.67248,-0.301585 1.00864,-0.452055 -0.393543,0.0157159 -0.712778,0.206322 -1.0391,0.380084 0.0100743,0.0240978 0.0203904,0.0476313 0.0304647,0.0719709z"/>
   <path id="_145778632" class="fil0" d="M17.6758 19.9421c-0.123148,0.0313513 -0.169248,0.119602 -0.164574,0.236303 0.00346556,0.0920389 0.0571415,0.150953 0.150953,0.148616 0.126533,-0.00306259 0.161511,-0.0919583 0.156031,-0.199794 -0.0043521,-0.0905076 -0.0228888,-0.178517 -0.14241,-0.185126z"/>
   <path id="_145778440" class="fil0" d="M14.6795 9.83269c0.225342,0.280066 0.357437,0.582618 0.663857,0.776206 -0.144184,-0.305856 -0.431584,-0.648222 -0.663857,-0.776206z"/>
   <path id="_145779280" class="fil0" d="M10.2843 21.5313c0.0920389,0.321169 0.13145,0.657651 0.297474,1.01493 0.00999372,-0.305856 -0.139428,-0.811103 -0.297474,-1.01493z"/>
   <path id="_145780144" class="fil0" d="M20.9999 21.35c0.107755,0.324393 0.167475,0.667484 0.358081,0.9598 -0.0913942,-0.330518 -0.155306,-0.672561 -0.358081,-0.9598z"/>
   <path id="_145780168" class="fil0" d="M14.059 9.11806c-0.0808363,-0.134915 -0.168845,-0.264914 -0.253873,-0.39717 0.0309483,0.269589 0.245733,0.647335 0.512984,0.857364 -0.103322,-0.18432 -0.17755,-0.324796 -0.259111,-0.460195z"/>
   <path id="_145758736" class="fil0" d="M13.8051 8.72097c-0.000161189,-0.00265962 -0.00185367,-0.00596399 -0.00201486,-0.00926837l0.000483567 -0.00128951c-0.00257902,-0.000805945 -0.0044327,-0.0014507 -0.00701172,-0.00282081 0.00161189,0.00282081 0.00346556,0.00507745 0.00515805,0.00781767 0.00112832,0.00185367 0.00225665,0.00370735 0.00338497,0.00556102z"/>
   <path id="_145757272" class="fil0" d="M15.995 11.1178c-0.0691501,-0.259031 -0.220829,-0.421993 -0.449959,-0.472687 0.147971,0.173842 0.229291,0.374684 0.449959,0.472687z"/>
   <path id="_145755832" class="fil0" d="M17.2392 13.6268c0.101871,-0.00862361 0.100743,-0.103806 0.0992118,-0.198021 -0.0158771,-0.0619772 -0.0120086,-0.166589 -0.121536,-0.155547 -0.10171,0.0105579 -0.0958269,0.112026 -0.100018,0.189316 -0.0044327,0.0859943 0.0203904,0.172956 0.122342,0.164252z"/>
   <path id="_145755784" class="fil0" d="M17.7644 10.014c-0.0106385,-0.0925225 -0.0682635,-0.141202 -0.160222,-0.135721 -0.0940538,0.00572221 -0.142008,0.0663293 -0.138703,0.156917 0.00370735,0.0988894 0.0749529,0.128065 0.167959,0.134029 0.0814004,-0.0153935 0.142169,-0.056255 0.130966,-0.155225z"/>
   <path id="_145755928" class="fil0" d="M24.7711 24.287c0.102436,0.123551 0.256129,0.128951 0.399185,0.151356 0.0382018,0.00596399 0.0603653,-0.026032 0.0456165,-0.0905076 -0.106707,-0.0863973 -0.24678,-0.125002 -0.3958,-0.134109 -0.0398137,-0.00209546 -0.0693113,0.0485179 -0.0490015,0.0732604z"/>
   <path id="_145756120" class="fil0" d="M26.1143 21.1249c-0.210755,0.049485 -0.387337,0.147649 -0.500492,0.338497 0.21551,-0.0425539 0.369768,-0.173439 0.500492,-0.338497z"/>
   <path id="_145756192" class="fil0" d="M8.3915 24.9632c0.0174084,-0.00765648 0.0228082,-0.0421509 0.0544013,-0.106707 -0.186737,0.0226471 -0.330034,0.0581086 -0.447783,0.169329 -0.0103967,0.0100743 0.000483567,0.0653621 0.00789826,0.0667322 0.152243,0.0313513 0.260965,-0.0740663 0.385483,-0.129354z"/>
   <path id="_145756336" class="fil0" d="M13.1883 26.6738c0.216799,-0.121456 0.348894,-0.238157 0.419333,-0.476958 -0.201406,0.124196 -0.324393,0.248473 -0.419333,0.476958z"/>
   <path id="_145756000" class="fil0" d="M13.2106 26.213c-0.176583,0.00475508 -0.280549,0.0855108 -0.360499,0.203985 -0.0207934,0.0313513 -0.00491626,0.0814004 0.0346556,0.0782573 0.131369,-0.0113638 0.211158,-0.10985 0.294251,-0.198182 0.0105579,-0.0107997 0.0121698,-0.0310289 0.031593,-0.0840601z"/>
   <path id="_145756552" class="fil0" d="M7.0301 25.5012c0.148294,0.0629443 0.249682,0.0232112 0.338497,-0.0545625 0.0302229,-0.0263544 0.0135399,-0.0768871 -0.0243395,-0.0801109 -0.114847,-0.00999372 -0.224133,0.00685053 -0.314157,0.134673z"/>
   <path id="_145756624" class="fil0" d="M20.7248 25.7624c-0.0685859,0.00604459 -0.121295,0.0420703 -0.114847,0.117426 0.00644756,0.073341 0.061413,0.10574 0.130805,0.102113 0.0711649,-0.00346556 0.111704,-0.0452941 0.115492,-0.128065 -0.014104,-0.0635085 -0.0616548,-0.0970358 -0.13145,-0.0914748z"/>
   <path id="_145756768" class="fil0" d="M23.0375 21.8991c0.0717291,-0.00378794 0.103403,-0.0555296 0.105256,-0.12605 -0.00934896,-0.0657651 -0.0389271,-0.122101 -0.110656,-0.123954 -0.087848,-0.00274021 -0.121778,0.0585116 -0.11517,0.138623 0.0058028,0.0691501 0.0501298,0.114767 0.120569,0.111382z"/>
   <path id="_145757128" class="fil0" d="M19.3968 27.6467c0.0112832,0.0608488 0.0637502,0.0841407 0.120569,0.0772901 0.0783378,-0.0100743 0.13008,-0.0517417 0.126936,-0.13959 -0.0172472,-0.073341 -0.0664099,-0.103725 -0.136769,-0.0896211 -0.0793856,0.0162801 -0.12613,0.0681829 -0.110737,0.151921z"/>
   <path id="_145756936" class="fil0" d="M4.60203 18.3997c0.0527088,0.0303035 0.117104,0.0667322 0.170054,0.00636697 0.0511775,-0.0574639 0.0160383,-0.116137 -0.020068,-0.169248 -0.0236948,-0.0347362 -0.0637502,-0.0631861 -0.0431986,-0.129515 0.0984059,0.0307871 0.195845,0.0635891 0.295218,0.0905882 0.0494044,0.0133787 0.112026,0.0398137 0.147971,-0.0128145 0.0364287,-0.0527894 -0.0137817,-0.0969552 -0.0428763,-0.140799 -0.0376376,-0.055852 -0.120811,-0.162479 -0.0994536,-0.165219 0.26298,-0.0318348 0.147488,-0.263947 0.202856,-0.390642 0.133948,-0.30634 0.046503,-0.576492 -0.174326,-0.69682 -0.116862,-0.0635891 -0.26975,-0.0282887 -0.223489,0.0910718 0.117426,0.301504 0.0143458,0.546672 -0.151518,0.756218 -0.101227,0.127662 -0.152404,0.424088 -0.44738,0.279099 -0.0496462,-0.0241783 -0.109609,-0.00967134 -0.141443,0.0420703 -0.0416674,0.0672964 0.00491626,0.120328 0.0452941,0.166508 0.128065,0.146924 0.321814,0.181579 0.482358,0.273135z"/>
   <path id="_145757008" class="fil0" d="M3.65391 18.6432c0.16538,-0.0490015 0.424652,0.0502104 0.495414,-0.205113 0.0363481,-0.129757 -0.22373,-0.292316 -0.441497,-0.305614 -0.226954,-0.0131369 -0.184642,0.130885 -0.167475,0.244363 -0.00475508,0.127823 -0.059237,0.317542 0.113558,0.266365z"/>
   <path id="_145757152" class="fil0" d="M3.26496 17.9716c0.100179,-0.00926837 0.151921,-0.0710038 0.160625,-0.169893 0.0058834,-0.0689083 -0.0222441,-0.127581 -0.097197,-0.127984 -0.116378,-0.000483567 -0.171666,0.0781767 -0.181741,0.183352 -0.00676994,0.0728574 0.0440852,0.10848 0.118313,0.114525z"/>
  </g>
 </g>
</svg>
